<svg id="Layer_1" data-name="Layer 1" xmlns="http://www.w3.org/2000/svg" viewBox="0 0 1535 1191"><defs><style>.cls-1{fill:#f9faff;}</style></defs><title>last-back</title><path id="Your_image_here_copy" data-name="Your image here copy" class="cls-1" d="M1065.6,26.91C960.91.77,865,.35,772.7,3.92,680.55,8.21,591.92,17.73,506.4,28.76c-85.3,11.39-167.63,24.53-242,44.5-74.1,20.28-140.28,47.36-186.46,94.42a239.64,239.64,0,0,0-16.43,17.88q-3.82,4.62-7.4,9.41l-1.76,2.4-.87,1.21c-.29.41-.58.81-.86,1.22q-1.73,2.43-3.36,4.9a232.51,232.51,0,0,0-22.1,41.86C13.24,275.94,6.91,308.18,5.73,342.09c-2.31,67.78,15.79,142.21,52,211.07,37.18,69.7,92.68,133.52,170.37,188.28,19.35,13.86,40.09,27.16,62.17,40.11q4.14,2.43,8.34,4.85t8.46,4.81q8.54,4.8,17.3,9.53,17.55,9.5,36.08,18.83c49.4,24.92,103.93,49.28,163.18,74.79l21.76,9.46,11,4.76,11,4.79q22,9.6,44.26,19.45c29.61,13.13,59.33,26.62,88.72,40.48,58.82,27.64,116.21,57.06,169.57,85.59,107.29,57.2,199.05,110.73,272.78,124.23,74.16,15.08,129.95-13.19,173.69-70.91,44.27-57,76.44-138.25,115.44-216.11,33.38-82.24,70.22-155.4,87.27-231.44,17.68-75.53,16.39-155.13-11.5-240.56-27.36-84.62-82.09-174.62-161-247.55a615.14,615.14,0,0,0-131.93-93.39q-4.48-2.37-9-4.66-2.25-1.14-4.53-2.27L1196.6,74q-9.11-4.43-18.32-8.55-4.59-2.07-9.23-4.05c-3.08-1.32-6.18-2.62-9.27-3.89q-9.3-3.82-18.67-7.33a665.77,665.77,0,0,0-75.51-23.26h0Z"/></svg>